<?xml version="1.0" encoding="utf-8"?>
<!-- Generator: Adobe Illustrator 17.0.0, SVG Export Plug-In . SVG Version: 6.00 Build 0)  -->
<!DOCTYPE svg PUBLIC "-//W3C//DTD SVG 1.1//EN" "http://www.w3.org/Graphics/SVG/1.1/DTD/svg11.dtd">
<svg version="1.1" id="Layer_1" xmlns="http://www.w3.org/2000/svg" xmlns:xlink="http://www.w3.org/1999/xlink" x="0px" y="0px"
	 width="817px" height="39px" viewBox="0 0 817 39" enable-background="new 0 0 817 39" xml:space="preserve">
<polygon fill="#282830" points="797,0 682.478,0 37,0 37,19.498 37,39 682.478,39 797,39 797,19.498 797,0 "/>
<g>
	<path fill="#FFC0CB" d="M801.478,36c-3.855,0-7.478-3.144-7.478-7V10c0-3.856,3.622-7,7.478-7h6C811.333,3,814,6.032,814,9.75v19.5
		c0,3.718-2.667,6.75-6.522,6.75H801.478z"/>
	<path fill="#FFC0CB" d="M807.478,6C809.638,6,811,7.725,811,9.749v19.5c0,2.025-1.362,3.751-3.522,3.751h-6
		c-2.161,0-4.478-1.84-4.478-4V10c0-2.161,2.317-4,4.478-4H807 M807.478,0l-6,0C795.978,0,791,4.5,791,10v19
		c0,5.5,4.978,10,10.478,10h6c5.5,0,9.522-4.388,9.522-9.751s0-14.138,0-19.5S812.739,0,807.239,0L807.478,0z"/>
</g>
<g>
	<g>
		<path fill="#282830" d="M791,6v13.498V33H682.478H43V19.498V6h639.478H791 M797,0L682.478,0L37,0v19.498V39h645.478H797V19.498V0
			L797,0z"/>
	</g>
	<g>
		<path fill="#FFFFFF" d="M31,10v19.029l-18.086-9.531L31,9.968 M37,0L0,19.498l37,19.498V0L37,0z M37,0L0,19.498l37,19.498V0L37,0z
			"/>
	</g>
	<g>
		<polygon fill="#282830" points="19,9.498 0.022,19.498 19,29.499 		"/>
	</g>
	<g>
		<path fill="#282830" d="M791,17v5H43v-5H791 M797,11H37v17h760V11L797,11z"/>
	</g>
</g>
<rect x="789.265" fill="#FFC0CB" width="14.811" height="39"/>
<rect x="774.265" fill="#282830" width="15" height="39"/>
<rect x="339.051" y="8" fill="#FFFFFF" stroke="#FFFFFF" stroke-width="3" stroke-linecap="round" stroke-linejoin="round" stroke-miterlimit="10" width="146.22" height="23"/>
<text transform="matrix(1 0 0 1 350.2064 28.4564)" fill="#282830" stroke="#282830" stroke-miterlimit="10" font-family="'BebasNeue'" font-size="24" letter-spacing="7">scribble</text>
</svg>
