<?xml version="1.0" encoding="utf-8"?>
<!-- Generator: Adobe Illustrator 17.0.0, SVG Export Plug-In . SVG Version: 6.00 Build 0)  -->
<!DOCTYPE svg PUBLIC "-//W3C//DTD SVG 1.1//EN" "http://www.w3.org/Graphics/SVG/1.1/DTD/svg11.dtd">
<svg version="1.1" id="Layer_1" xmlns="http://www.w3.org/2000/svg" xmlns:xlink="http://www.w3.org/1999/xlink" x="0px" y="0px"
	 width="817px" height="39px" viewBox="0 0 817 39" enable-background="new 0 0 817 39" xml:space="preserve">
<g>
	<g>
		<path fill="#282830" d="M774,6v13.502V33H135H6V19.502V6h129H774 M780,0H135H0v19.502V39h135h645V19.502V0L780,0z"/>
	</g>
	<g>
		<path fill="#282830" d="M786,9.971l18.086,9.531L786,29.032V10 M780,0.003V39l37-19.498L780,0.003L780,0.003z"/>
	</g>
	<g>
		<polygon fill="#282830" points="798,9.501 798,29.502 816.978,19.502 798,9.501 		"/>
	</g>
	<g>
		<path fill="#282830" d="M774,17v5H6v-5H774 M780,11H0v17h780V11L780,11z"/>
	</g>
</g>
</svg>
