<?xml version="1.0" encoding="utf-8"?>
<!-- Generator: Adobe Illustrator 17.0.0, SVG Export Plug-In . SVG Version: 6.00 Build 0)  -->
<!DOCTYPE svg PUBLIC "-//W3C//DTD SVG 1.1//EN" "http://www.w3.org/Graphics/SVG/1.1/DTD/svg11.dtd">
<svg version="1.1" id="Layer_1" xmlns="http://www.w3.org/2000/svg" xmlns:xlink="http://www.w3.org/1999/xlink" x="0px" y="0px"
	 width="640px" height="37px" viewBox="0 0 640 37" enable-background="new 0 0 640 37" xml:space="preserve">
<g>
	<polygon fill="#69C6FF" stroke="#69C6FF" stroke-width="0.9872" stroke-miterlimit="10" points="6.137,4.365 108.364,3.232 
		106.172,15.26 107.691,29.626 111.443,34.337 11.981,34.869 3.894,30.137 1.134,15.766 	"/>
	
		<line fill="none" stroke="#000000" stroke-width="0.9975" stroke-linecap="round" stroke-miterlimit="10" x1="1.506" y1="16.513" x2="107.787" y2="15.422"/>
	
		<line fill="none" stroke="#000000" stroke-width="0.9975" stroke-linecap="round" stroke-miterlimit="10" x1="3.894" y1="30.137" x2="108.687" y2="29.491"/>
	<polyline fill="none" stroke="#F22EFF" stroke-width="0.9975" stroke-miterlimit="10" points="109.106,3.787 110.924,4.803 
		112.227,4.376 	"/>
	<path stroke="#000000" stroke-width="0.9975" stroke-linecap="round" stroke-miterlimit="10" d="M111.258,4.397l-2.19-1.294
		l-2.563,11.751l1.52,14.366l3.751,4.711l1.355-0.656l1.605,0.365l-3.725-7.478c0,0-0.87-2.006-1.062-6.993
		c-0.192-4.987,1.46-11.724,1.46-11.724s0.693-3.58,1.485-3.882L111.258,4.397z"/>
	<path fill="#2C2C2D" d="M606.129,5.041c0,0,2.449-0.166,2.98,0.678c0.531,0.844,1.386,3.45,1.386,3.45s0.589,2.183,0.442,11.312
		c-0.146,9.088-1.589,12.125-2.258,13.11c-0.816,1.201-4.81,3.126-4.81,3.126L606.129,5.041z"/>
	<path fill="#2C2C2D" d="M611.417,7.606l1.454,0.656l17.148,0.403l2.303,3.658c0,0,0.26,0.563,0.504,1.635
		c0.365,1.601,0.695,4.335,0.073,8.02c-1.038,6.154-1.804,8.993-3.159,9.65c-1.355,0.656-18.185,0.446-18.185,0.446
		s1.269-9.02,0.939-14.736C612.178,11.841,611.417,7.606,611.417,7.606z"/>
	<g>
		<path fill="#2C2C2D" d="M609.268,5.815c0.531,0.844,1.386,3.45,1.386,3.45s0.589,2.183,0.442,11.312
			c-0.146,9.088-1.589,12.125-2.258,13.11c-0.108,0.159-0.274,0.331-0.476,0.509l3.353-2.025c0,0,1.269-9.02,0.939-14.736
			c-0.317-5.497-1.078-9.733-1.078-9.733L609.268,5.815z"/>
	</g>
	<path fill="#2C2C2D" d="M632.062,13.469c0,0,2.704,2.423,2.85,3.903c0.146,1.48-0.558,7.227-1.225,8.04
		c-0.667,0.813-2.903,1.631-2.903,1.631"/>
	<path fill="#CACACA" d="M111.443,34.337l1.355-0.656l1.605,0.365l-3.725-7.478c0,0-0.87-2.006-1.062-6.993
		c-0.192-4.987,1.46-11.724,1.46-11.724s1.027-3.986,1.819-4.288l492.809,0.802c0,0,1.759,1.702,2.082,3.464
		c0,0,0.776,8.254,0.614,12.678c0,0-1.202,12.446-1.929,13.787c-0.727,1.342-3.2,2.407-3.2,2.407l-488.868-2.655"/>
	
		<line fill="none" stroke="#FFFFFF" stroke-width="1.995" stroke-linecap="square" stroke-miterlimit="10" x1="113.366" y1="10.555" x2="606.805" y2="11.295"/>
	
		<line fill="none" stroke="#FFFFFF" stroke-width="1.995" stroke-linecap="square" stroke-miterlimit="10" x1="113.787" y1="26.202" x2="606.596" y2="27.004"/>
</g>
</svg>
