<?xml version="1.0" encoding="utf-8"?>
<!-- Generator: Adobe Illustrator 17.0.0, SVG Export Plug-In . SVG Version: 6.00 Build 0)  -->
<!DOCTYPE svg PUBLIC "-//W3C//DTD SVG 1.1//EN" "http://www.w3.org/Graphics/SVG/1.1/DTD/svg11.dtd">
<svg version="1.1" id="Layer_1" xmlns="http://www.w3.org/2000/svg" xmlns:xlink="http://www.w3.org/1999/xlink" x="0px" y="0px"
	 width="817px" height="39px" viewBox="0 0 817 39" enable-background="new 0 0 817 39" xml:space="preserve">
<g>
	<g>
		<path fill="#D1A75D" d="M811,6v13.502V33H682.478H43V19.502V6h639.478H811 M817,0H682.478H37v19.502V39h645.478H817V19.502V0
			L817,0z"/>
	</g>
	<g>
		<path fill="#D1A75D" d="M31,10v19.032l-18.086-9.531L31,9.971 M37,0.003L0,19.502L37,39V0.003L37,0.003z"/>
	</g>
	<g>
		<polygon fill="#D1A75D" points="19,9.501 0.022,19.502 19,29.502 19,9.501 		"/>
	</g>
	<g>
		<path fill="#D1A75D" d="M811,17v5H43v-5H811 M817,11H37v17h780V11L817,11z"/>
	</g>
</g>
</svg>
