<?xml version="1.0" encoding="utf-8"?>
<!-- Generator: Adobe Illustrator 17.0.0, SVG Export Plug-In . SVG Version: 6.00 Build 0)  -->
<!DOCTYPE svg PUBLIC "-//W3C//DTD SVG 1.1//EN" "http://www.w3.org/Graphics/SVG/1.1/DTD/svg11.dtd">
<svg version="1.1" id="Layer_1" xmlns="http://www.w3.org/2000/svg" xmlns:xlink="http://www.w3.org/1999/xlink" x="0px" y="0px"
	 width="210px" height="30px" viewBox="0 0 210 30" enable-background="new 0 0 210 30" xml:space="preserve">
<g>
	<g>
		<path fill="#FFFFFF" d="M178,5v10.784V26h-77.794H5V15.784V5h95.206H178 M182,1h-81.794H0v14.784V31h100.206H182V15.784V1L182,1z"
			/>
	</g>
	<g>
		<path fill="#FFFFFF" d="M187,8.445l13.438,7.339L187,23.123V8 M182,0.784v30l27.464-15L182,0.784L182,0.784z"/>
	</g>
	<g>
		<polygon fill="#FFFFFF" points="196,8.09 196,23.478 210.086,15.784 196,8.09 		"/>
	</g>
	<g>
		<path fill="#FFFFFF" d="M178,14v4H5v-4H178 M182,9H0v13h182V9L182,9z"/>
	</g>
</g>
</svg>
